<?xml version="1.0" encoding="UTF-8" standalone="no"?>
<!-- Created with Inkscape (http://www.inkscape.org/) -->

<svg
   width="250mm"
   height="250mm"
   viewBox="0 0 250 250"
   version="1.1"
   id="svg5"
   xml:space="preserve"
   inkscape:version="1.4 (e7c3feb1, 2024-10-09)"
   sodipodi:docname="favicon.svg"
   inkscape:export-filename="favicon.png"
   inkscape:export-xdpi="236.33"
   inkscape:export-ydpi="236.33"
   xmlns:inkscape="http://www.inkscape.org/namespaces/inkscape"
   xmlns:sodipodi="http://sodipodi.sourceforge.net/DTD/sodipodi-0.dtd"
   xmlns="http://www.w3.org/2000/svg"
   xmlns:svg="http://www.w3.org/2000/svg"><sodipodi:namedview
     id="namedview7"
     pagecolor="#ffffff"
     bordercolor="#000000"
     borderopacity="0.25"
     inkscape:showpageshadow="2"
     inkscape:pageopacity="0.0"
     inkscape:pagecheckerboard="0"
     inkscape:deskcolor="#d1d1d1"
     inkscape:document-units="mm"
     showgrid="false"
     inkscape:zoom="0.58"
     inkscape:cx="430.17241"
     inkscape:cy="411.2069"
     inkscape:window-width="1712"
     inkscape:window-height="930"
     inkscape:window-x="0"
     inkscape:window-y="34"
     inkscape:window-maximized="1"
     inkscape:current-layer="layer1"
     showborder="false"
     inkscape:export-bgcolor="#ffffff00" /><defs
     id="defs2" /><g
     inkscape:label="Layer 1"
     inkscape:groupmode="layer"
     id="layer1"><g
       id="g2"
       transform="matrix(1.0824269,0,0,1.0824269,-10.092782,-2.7736995)"><path
         style="fill:#ececec;stroke-width:3.83314"
         d="m 17.328841,137.60207 2.918458,-24.88393 14.743873,-13.326337 20.933205,-6.274172 19.693312,0.858367 16.982273,-4.455208 12.190998,-8.178017 15.08342,-5.25794 23.79323,0.284392 23.45732,3.752946 30.47283,12.777368 27.00027,17.058431 7.68404,14.32174 -4.14657,9.47135 -24.32999,-8.14042 -19.78981,-3.55135 8.01158,19.99996 -3.78449,12.53017 -14.57291,5.11116 -29.14046,-0.11312 -23.12224,0.3914 -12.1032,-11.66744 3.31227,11.69119 -26.681134,-2.78745 -6.360232,-8.28237 -27.850435,7.39145 -29.709963,-0.55237 z"
         id="path1119"
         sodipodi:nodetypes="cccccccccccccccccccccccccccc" /><g
         id="g897"
         transform="matrix(1.5780334,0,0,1.5780334,44.132663,-79.541484)"
         style="fill:#0f9ed5;fill-opacity:1"><g
           id="g908"
           transform="translate(-14.572883,-2.3470647)"
           style="fill:#0f9ed5;fill-opacity:1"><path
             style="fill:#0f9ed5;fill-opacity:1;stroke-width:2.5"
             d="m 50.420614,109.45797 9.354677,-3.79254 7.901092,-1.45979 9.36146,0.16126 9.84607,1.64082 8.50688,3.70979 6.492117,1.52136 6.42182,2.01164 5.16111,2.73941 6.46756,3.91793 7.18771,6.17357 3.85891,4.73043 -1.35728,3.04442 -7.76836,-2.50388 -10.55635,-5.82705 -4.65814,-0.79555 -6.743437,-3.11733 -5.44977,-1.85486 -9.08131,-4.49998 -5.78694,-3.59428 -11.85375,-1.40586 -7.386259,1.06047 z"
             id="path346-5"
             sodipodi:nodetypes="ccccccccccccccccccccccc" /><path
             style="fill:#0f9ed5;fill-opacity:1;stroke-width:2.5"
             d="m 46.654061,112.87461 4.015642,-2.96167 7.564739,2.24011 7.92058,-0.48548 7.171621,0.22819 6.21028,1.36548 4.8948,3.22516 4.89536,2.35138 5.03572,1.95826 6.984097,2.55952 3.71505,1.29646 -6.580707,-0.0134 -3.43754,1.37903 -4.4901,3.67476 -4.03569,-2.34827 -2.61854,-3.63438 -3.99842,-4.09359 -7.78135,-3.7931 -7.296446,-1.93312 z"
             id="path552-6"
             sodipodi:nodetypes="cccccccccccccccccccc" /><path
             style="fill:#0f9ed5;fill-opacity:1;stroke-width:2.5"
             d="m 92.447193,146.81596 1.58151,2.20142 3.97554,0.50354 4.656727,-2.95603 1.19065,-4.34098 -1.34429,-6.71976 -2.41379,-3.79903 -3.638047,-4.69287 -1.02827,-0.3533 -3.90296,3.02522 -0.87492,4.1063 -0.0384,2.96224 6.10466,3.49769 -0.1655,3.86117 -1.31435,0.33946 -2.35787,-1.23246 0.77014,2.39148 1.99554,1.12655 1.44341,0.0119 -2.0362,0.69078 -2.11584,-0.63713 z"
             id="path554-2" /><path
             style="fill:#0f9ed5;fill-opacity:1;stroke-width:2.5"
             d="m 85.156673,151.46732 1.76791,-0.95993 1.31238,-3.89251 0.84188,-5.44833 0.57414,-6.52884 0.36686,-4.36019 -3.0882,-1.64026 -2.79025,-3.27656 -3.39518,-4.22096 -6.41249,-3.36073 -5.45313,-1.96758 -8.614183,-1.3296 -10.763641,-0.57612 -3.655566,0.25953 -2.552173,5.07583 -0.823521,4.22604 0.789914,7.71216 1.942441,6.31675 -1.814227,4.32319 -2.358155,4.70643 3.449402,5.06227 9.173652,0.0121 -0.709141,-2.30026 -3.715721,-1.54452 -0.724109,-1.68827 2.598208,-1.83851 4.747659,-4.06676 2.681521,-3.62338 2.554433,-6.42322 -0.0113,-3.47002 -0.463725,-2.76172 1.949503,6.16679 -2.26383,5.81688 5.824222,-0.57443 5.061427,-1.00935 4.40735,-1.53972 1.12655,4.24383 4.62594,7.58479 -0.5301,2.09947 -0.49111,0.47134 -0.43859,2.54823 2.01417,2.12403 z"
             id="path556-9" /><path
             style="fill:#0f9ed5;fill-opacity:1;stroke-width:2.5"
             d="m 57.79105,139.75505 1.680364,2.84871 0.968116,3.92216 1.470527,3.52029 1.403879,0.80601 9.193137,0.076 -0.88085,-2.75523 -3.13479,-1.37423 -1.61597,-1.18303 0.60493,-3.3836 0.89158,-4.0436 0.0644,-2.01954 -7.001892,0.81533 -2.09438,0.26801 z"
             id="path560-1" /><path
             style="fill:#0f9ed5;fill-opacity:1;stroke-width:2.5"
             d="m 44.743531,114.26042 -3.43839,1.83682 -7.645508,0.17227 -9.613088,-0.477 1.765088,1.45895 -8.159504,-0.18215 -6.620909,2.49597 3.724473,0.15476 -5.59236,1.67076 -3.625064,3.10204 1.916179,-0.34455 -4.47965,3.51944 -1.632633,3.98684 -0.024,2.19944 1.187831,-2.01276 -1.385803,6.73246 0.557765,4.11082 1.329322,3.53469 0.165495,-2.09099 0.966702,2.98172 1.615692,2.27457 0.344826,-5.20913 1.18755,3.69906 1.185858,1.7552 0.540821,-3.88969 0.730041,3.47285 5.436748,-5.01539 1.455844,-0.79471 -3.568864,4.31274 3.470021,-0.39199 3.123213,-1.86732 -1.206754,1.68714 5.018778,-1.45105 3.338414,-3.1009 1.461776,-1.88539 -0.505241,2.37566 -1.342593,2.28925 4.173227,-1.94329 3.127452,-3.0769 -0.626676,2.3847 3.017591,-1.89415 1.650146,-2.72699 2.64e-4,2.58183 2.236153,-2.95151 2.050042,-3.98147 0.919257,-3.68776 -0.757999,-5.67228 0.591658,-4.31133 1.615689,-4.39323 z"
             id="path562-2" /><path
             style="fill:#0f9ed5;fill-opacity:1;stroke-width:2.38048"
             d="m 44.383114,114.60904 6.295472,-5.19432 13.45232,-0.0747 18.006974,1.06901 24.75633,13.85753 0.44723,0.44952 -3.14564,-0.0974 -7.287293,-0.64594 -1.331617,1.58604 0.727132,1.60638 -1.604102,4.97622 -3.713811,4.71913 -2.362988,-0.29283 -9.082114,-6.67387 -17.35457,2.5558 6.769705,1.75375 -0.658487,2.28959 -10.093899,3.37534 -3.339027,-0.31926 -8.413738,-4.79633 -4.3877,-5.14811 -1.647077,-10.20723 z"
             id="path899" /></g></g><path
         style="fill:#1a1a1a;stroke-width:3.83314"
         d="m 105.18292,90.076721 12.33592,-4.902574 12.11439,-2.238235 14.35351,0.24725 15.09653,3.81278 12.78381,5.428659 10.47289,2.592027 9.58688,3.084357 7.9133,4.200215 9.08089,4.98872 11.2991,9.0479 5.22043,6.55667 -1.10628,3.55384 -11.63237,-3.97834 -15.90707,-8.09883 -9.09168,-1.63754 -8.48589,-4.56838 -8.53835,-2.29656 -13.37656,-7.264559 -10.33262,-5.510947 -15.80269,-1.425657 -12.23738,0.531144 z"
         id="path346"
         sodipodi:nodetypes="ccccccccccccccccccccccc" /><path
         style="fill:#1a1a1a;stroke-width:3.83314"
         d="m 97.400653,96.227658 6.157007,-4.540995 11.59867,3.43466 12.14427,-0.744366 10.99592,0.349874 9.52195,2.09363 7.50497,4.944989 7.50583,3.60527 7.72105,3.00251 10.7084,3.9244 4.05389,1.44039 -8.44768,0.52681 -5.27062,2.1144 -6.88447,5.63435 -6.18774,-3.6005 -4.01489,-5.57243 -6.13059,-6.27652 -11.9308,-5.81579 -11.18731,-2.963964 z"
         id="path552"
         sodipodi:nodetypes="cccccccccccccccccccc" /><path
         style="fill:#1a1a1a;stroke-width:3.83314"
         d="m 167.6132,148.2684 2.42486,2.53981 6.23476,0.49355 7.0007,-3.41831 1.82558,-6.65583 -2.06114,-10.30311 -3.70095,-5.82488 -5.57806,-7.19536 -1.57661,-0.5417 -5.98424,4.63843 -1.34146,6.296 -0.0589,2.45305 10.19552,5.91987 0.0248,8.42674 -2.99003,0.52048 -3.61522,-1.88967 1.04158,2.69197 3.05967,1.72728 2.21312,0.0183 -3.12203,1.05914 -3.24411,-0.97688 z"
         id="path554"
         sodipodi:nodetypes="cccccccccccccccccccccc" /><path
         style="fill:#1a1a1a;stroke-width:3.83314"
         d="m 156.43497,155.40012 2.71065,-1.47181 2.01222,-5.96821 1.29082,-8.35368 0.8803,-10.01038 0.56249,-5.04304 -5.28241,-2.51494 -4.82558,-4.11144 -5.20567,-7.38417 -8.91963,-4.60544 -9.09093,-3.56422 -12.29537,-2.586026 -16.86835,-0.883339 -5.239976,0.397925 -1.319177,6.42831 -1.78146,6.739 0.692351,11.30592 1.421884,10.20398 -2.781673,6.62855 -3.615652,7.21616 5.288811,7.76175 14.065552,0.0186 -1.0873,-3.52688 -5.69715,-2.36815 -1.11024,-2.58855 3.98372,-2.8189 7.27937,-6.23538 4.11145,-5.55557 3.9166,-9.84843 -0.0173,-5.32043 -0.71101,-4.23442 2.98909,9.45526 -3.47103,8.91876 8.93002,-0.88074 7.76045,-1.54759 6.7576,-2.36079 2.42355,5.5321 6.81424,11.49015 -0.25576,3.21903 -0.61374,2.67225 -0.67247,3.07156 1.9742,3.25668 z"
         id="path556"
         sodipodi:nodetypes="ccccccccccccccccccccccccccccccccccccccccccc" /><path
         style="fill:#1a1a1a;stroke-width:3.83314"
         d="m 149.48166,155.737 -5.01731,-0.91494 -2.52923,-3.77502 0.53736,-5.40573 2.05596,4.63195 1.99012,1.6043 -1.8442,-4.40633 1.10072,-3.0995 1.62033,3.65851 1.20681,1.03231 -0.37109,4.02268 z"
         id="path558" /><path
         style="fill:#000000;stroke-width:3.83314"
         d="m 114.4765,137.44223 2.57642,4.3678 1.48437,6.01367 2.25469,5.3975 2.15251,1.23582 14.09542,0.11652 -1.35056,-4.22447 -4.80644,-2.10705 -2.47769,-1.81388 0.92751,-5.18792 1.36702,-6.19987 0.0987,-3.09648 -10.73569,1.25011 -3.21122,0.41093 z"
         id="path560" /><path
         style="fill:#1a1a1a;stroke-width:3.83314"
         d="m 94.471325,98.352459 -5.271929,2.816311 -11.722514,0.26414 -14.739316,-0.73137 2.706331,2.23695 -12.510601,-0.27929 -10.151541,3.82696 5.710567,0.23729 -8.574515,2.5617 -5.558147,4.75622 2.937991,-0.52829 -6.868446,5.3962 -2.503243,6.11285 -0.0368,3.3723 1.821246,-3.08608 -2.124788,10.32258 0.855196,6.30294 2.038189,5.41958 0.253746,-3.20602 1.4822,4.57173 2.477269,3.4875 0.528707,-7.98693 1.820816,5.67161 1.818223,2.69117 0.829216,-5.96389 1.119338,5.32476 8.335923,-7.68987 2.23218,-1.21849 -5.471979,6.61253 5.320427,-0.60102 4.788681,-2.86308 -1.850261,2.58682 7.695067,-2.22483 5.118639,-4.75447 2.241276,-2.89079 -0.774664,3.6425 -2.058537,3.51 6.398621,-2.97956 4.795182,-4.71767 -0.960854,3.65635 4.626735,-2.90421 2.530095,-4.18117 4.05e-4,3.9586 3.428594,-4.52542 3.143236,-6.10461 1.409456,-5.65427 -1.162206,-8.69705 0.907162,-6.61037 2.477264,-6.73594 z"
         id="path562" /><path
         style="fill:#f9f9f9;stroke-width:3.83314"
         d="m 180.47193,104.8091 -2.88819,-5.13076 0.43907,-2.546552 3.29351,-0.651679 1.59259,2.049885 1.38046,2.435256 -1.50038,2.55002 -0.0778,-2.91245 -2.54048,-1.857619 -0.66467,1.787899 1.33238,2.63358 1.27392,2.44783 z"
         id="path564" /><g
         id="g741"
         style="fill:#1a1a1a"
         transform="matrix(1.533255,0,0,1.533255,-25.808725,-69.579318)"><g
           id="g1"><path
             style="fill:#f2f2f2;stroke-width:3.83314"
             d="m 187.417,106.30127 1.18387,2.01653 2.92413,0.0123 1.9858,-0.55988 0.66814,-1.50472 -1.19858,-2.40278 -2.66087,-1.01195 -2.62447,1.29254 z"
             id="path566"
             transform="matrix(0.65220724,0,0,0.65220724,16.832637,45.380134)" /><path
             style="fill:#1a1a1a;stroke-width:2.5"
             d="m 140.59514,115.30549 1.2679,-0.0679 0.43958,-0.44535 0.27289,-0.52563 -0.47436,-0.68927 -0.88837,-0.31246 -0.81407,0.15879 -0.52126,0.41295 -0.0779,0.74806 0.17282,0.60638 z"
             id="path624" /><path
             style="fill:#1a1a1a;stroke-width:4.58636"
             d="m 139.83223,114.15986 -1.03148,-1.01781 0.56706,-0.24388 0.9784,0.95349 -0.52947,0.3765 z"
             id="path734" /><path
             style="fill:#1a1a1a;stroke-width:5.2141"
             d="m 141.77784,114.77943 1.72078,1.33813 0.48931,-0.13995 -1.8591,-1.61107 z"
             id="path736" /></g></g></g></g></svg>
